# xmcd
#
# Track frame offsets:
# 150
# 14510
# 26840
# 50135
# 64042
# 74052
# 96210
# 110490
# 131507
# 148445
# 164112
# 176192
#
# Disc length: 2582 seconds
#
#
# Revision: 0
# Processed by: cddbd v1.4PL0 Copyright (c) Steve Scherf et al.
# Submitted via: FreeRIP 2.11 
#
DISCID=c50a140c
DTITLE=Big Joe and The Dynaflows - All Night Long
DYEAR=2000
DGENRE=R&B
TTITLE0=All Night Long
TTITLE1=Down In Louisiana
TTITLE2=Move It Or Lose It
TTITLE3=It Really Breaks My Heart
TTITLE4=My Baby's Tops
TTITLE5=The Church Of Your Love
TTITLE6=Mr. Nick
TTITLE7=Ham Hocks
TTITLE8=You Were Always There
TTITLE9=One More Time
TTITLE10=Honey Bee
TTITLE11=Third Class Citizen
EXTD=
EXTT0=
EXTT1=
EXTT2=
EXTT3=
EXTT4=
EXTT5=
EXTT6=
EXTT7=
EXTT8=
EXTT9=
EXTT10=
EXTT11=
PLAYORDER=
